<?xml version="1.0" standalone="no"?>
<!DOCTYPE svg PUBLIC "-//W3C//DTD SVG 20010904//EN"
 "http://www.w3.org/TR/2001/REC-SVG-20010904/DTD/svg10.dtd">
<svg version="1.0" xmlns="http://www.w3.org/2000/svg"
 width="512.000000pt" height="512.000000pt" viewBox="0 0 512.000000 512.000000"
 preserveAspectRatio="xMidYMid meet">

<g transform="translate(0.000000,512.000000) scale(0.100000,-0.100000)"
fill="#000000" stroke="none">
<path d="M3665 5107 c-98 -45 -122 -168 -47 -240 36 -34 72 -47 135 -47 29 0
94 -7 146 -15 238 -39 450 -151 618 -328 88 -93 144 -174 198 -291 56 -119 82
-216 96 -351 16 -167 18 -173 50 -210 57 -64 140 -70 204 -14 48 43 59 84 51
202 -46 705 -616 1269 -1316 1303 -78 3 -113 1 -135 -9z"/>
<path d="M3664 4481 c-79 -37 -110 -116 -76 -194 27 -61 57 -78 166 -93 121
-17 189 -43 261 -101 108 -88 165 -198 180 -349 9 -90 32 -129 91 -155 86 -38
179 6 203 97 24 89 -28 309 -100 430 -50 83 -164 201 -247 255 -109 71 -226
110 -372 124 -52 4 -73 2 -106 -14z"/>
<path d="M2699 4016 c-92 -20 -197 -65 -271 -119 -35 -25 -565 -549 -1178
-1164 -922 -924 -1122 -1129 -1153 -1183 -105 -182 -124 -413 -51 -609 49
-130 84 -173 403 -492 332 -333 369 -361 526 -415 72 -25 93 -28 215 -28 119
1 145 4 215 27 169 56 116 8 1333 1222 779 777 1137 1140 1167 1186 87 130
119 235 119 399 0 93 -4 129 -23 190 -32 106 -83 198 -156 282 -92 108 -542
549 -598 587 -61 42 -162 89 -229 107 -78 21 -240 26 -319 10z m240 -741 c226
-54 380 -278 343 -500 -51 -311 -376 -475 -656 -333 -53 27 -142 112 -173 166
-134 228 -45 522 193 634 103 48 187 58 293 33z m-819 -687 c122 -84 67 -272
-80 -272 -147 0 -204 189 -81 271 46 31 116 31 161 1z m-440 -416 c124 -62 98
-253 -37 -278 -103 -19 -199 81 -172 180 26 96 123 141 209 98z m850 -1 c107
-56 107 -210 0 -263 -63 -32 -116 -22 -173 30 -119 112 28 311 173 233z
m-1277 -422 c31 -16 475 -459 493 -491 44 -84 -10 -197 -103 -214 -74 -14 -94
1 -350 258 -207 208 -242 248 -248 280 -13 67 12 124 68 158 36 22 106 26 140
9z m868 -12 c89 -59 89 -185 0 -244 -71 -48 -175 -20 -213 57 -50 98 21 210
132 210 32 0 58 -7 81 -23z m-1298 -411 c18 -8 138 -121 268 -252 250 -252
259 -264 245 -339 -17 -91 -131 -145 -214 -101 -32 18 -475 462 -491 493 -6
12 -11 42 -11 66 0 105 107 175 203 133z"/>
<path d="M2771 2968 c-58 -30 -84 -76 -78 -141 13 -150 204 -188 275 -56 69
129 -68 265 -197 197z"/>
</g>
</svg>
